# xmcd
#
# Track frame offsets:
#	150
#	21387
#	38507
#	58904
#	74577
#	91293
#	110384
#	130344
#	149058
#	166690
#
# Disc length: 2500 seconds
# Revision: 0
# Processed by: cddbd v1.5.2PL0 Copyright (c) Steve Scherf et al.
# Submitted via: dBpowerAMP V12.0
#
DISCID=8f09c20a
DTITLE=Rick Shea and The Losin' End - The Town Where I Live
DYEAR=2017
DGENRE=Americana
TTITLE0=Goodbye Alberta
TTITLE1=The Road to Jericho
TTITLE2=The Starkville Blues
TTITLE3=The Town Where I Live
TTITLE4=Hold on Jake
TTITLE5=Trouble Like This
TTITLE6=(You're Gonna Miss Me) When I'm Gone
TTITLE7=The Angel Mary and the Rounder Jim
TTITLE8=I Guess Things Happen That Way
TTITLE9=Sweet Little Mama
EXTD=
EXTT0=
EXTT1=
EXTT2=
EXTT3=
EXTT4=
EXTT5=
EXTT6=
EXTT7=
EXTT8=
EXTT9=
PLAYORDER=
